<svg width="738" height="12" viewBox="0 0 738 12" fill="none" xmlns="http://www.w3.org/2000/svg">
<g clip-path="url(#clip0_4096_4239)">
<path d="M738 6.99996C738.552 6.99996 739 6.55224 739 5.99996C739 5.44768 738.552 4.99996 738 4.99996V6.99996ZM5.75033 11.3333C8.69585 11.3333 11.0836 8.94548 11.0836 5.99996C11.0836 3.05444 8.69585 0.666626 5.75033 0.666626C2.80481 0.666626 0.416992 3.05444 0.416992 5.99996C0.416992 8.94548 2.80481 11.3333 5.75033 11.3333ZM8.75135 6.99996C9.30364 6.99996 9.75135 6.55224 9.75135 5.99996C9.75135 5.44768 9.30364 4.99996 8.75135 4.99996V6.99996ZM14.7534 4.99996C14.2011 4.99996 13.7534 5.44768 13.7534 5.99996C13.7534 6.55224 14.2011 6.99996 14.7534 6.99996V4.99996ZM20.7554 6.99996C21.3077 6.99996 21.7554 6.55224 21.7554 5.99996C21.7554 5.44768 21.3077 4.99996 20.7554 4.99996V6.99996ZM26.7575 4.99996C26.2052 4.99996 25.7575 5.44768 25.7575 5.99996C25.7575 6.55224 26.2052 6.99996 26.7575 6.99996V4.99996ZM32.7595 6.99996C33.3118 6.99996 33.7595 6.55224 33.7595 5.99996C33.7595 5.44768 33.3118 4.99996 32.7595 4.99996V6.99996ZM38.7616 4.99996C38.2093 4.99996 37.7616 5.44768 37.7616 5.99996C37.7616 6.55224 38.2093 6.99996 38.7616 6.99996V4.99996ZM44.7636 6.99996C45.3159 6.99996 45.7636 6.55224 45.7636 5.99996C45.7636 5.44768 45.3159 4.99996 44.7636 4.99996V6.99996ZM50.7657 4.99996C50.2134 4.99996 49.7657 5.44768 49.7657 5.99996C49.7657 6.55224 50.2134 6.99996 50.7657 6.99996V4.99996ZM56.7677 6.99996C57.32 6.99996 57.7677 6.55224 57.7677 5.99996C57.7677 5.44768 57.32 4.99996 56.7677 4.99996V6.99996ZM62.7698 4.99996C62.2175 4.99996 61.7698 5.44768 61.7698 5.99996C61.7698 6.55224 62.2175 6.99996 62.7698 6.99996V4.99996ZM68.7718 6.99996C69.3241 6.99996 69.7718 6.55224 69.7718 5.99996C69.7718 5.44768 69.3241 4.99996 68.7718 4.99996V6.99996ZM74.7739 4.99996C74.2216 4.99996 73.7739 5.44768 73.7739 5.99996C73.7739 6.55224 74.2216 6.99996 74.7739 6.99996V4.99996ZM80.7759 6.99996C81.3282 6.99996 81.7759 6.55224 81.7759 5.99996C81.7759 5.44768 81.3282 4.99996 80.7759 4.99996V6.99996ZM86.778 4.99996C86.2257 4.99996 85.778 5.44768 85.778 5.99996C85.778 6.55224 86.2257 6.99996 86.778 6.99996V4.99996ZM92.78 6.99996C93.3323 6.99996 93.78 6.55224 93.78 5.99996C93.78 5.44768 93.3323 4.99996 92.78 4.99996V6.99996ZM98.7821 4.99996C98.2298 4.99996 97.7821 5.44768 97.7821 5.99996C97.7821 6.55224 98.2298 6.99996 98.7821 6.99996V4.99996ZM104.784 6.99996C105.336 6.99996 105.784 6.55224 105.784 5.99996C105.784 5.44768 105.336 4.99996 104.784 4.99996V6.99996ZM110.786 4.99996C110.234 4.99996 109.786 5.44768 109.786 5.99996C109.786 6.55224 110.234 6.99996 110.786 6.99996V4.99996ZM116.788 6.99996C117.34 6.99996 117.788 6.55224 117.788 5.99996C117.788 5.44768 117.34 4.99996 116.788 4.99996V6.99996ZM122.79 4.99996C122.238 4.99996 121.79 5.44768 121.79 5.99996C121.79 6.55224 122.238 6.99996 122.79 6.99996V4.99996ZM128.792 6.99996C129.344 6.99996 129.792 6.55224 129.792 5.99996C129.792 5.44768 129.344 4.99996 128.792 4.99996V6.99996ZM134.794 4.99996C134.242 4.99996 133.794 5.44768 133.794 5.99996C133.794 6.55224 134.242 6.99996 134.794 6.99996V4.99996ZM140.796 6.99996C141.348 6.99996 141.796 6.55224 141.796 5.99996C141.796 5.44768 141.348 4.99996 140.796 4.99996V6.99996ZM146.798 4.99996C146.246 4.99996 145.798 5.44768 145.798 5.99996C145.798 6.55224 146.246 6.99996 146.798 6.99996V4.99996ZM152.8 6.99996C153.352 6.99996 153.8 6.55224 153.8 5.99996C153.8 5.44768 153.352 4.99996 152.8 4.99996V6.99996ZM158.802 4.99996C158.25 4.99996 157.802 5.44768 157.802 5.99996C157.802 6.55224 158.25 6.99996 158.802 6.99996V4.99996ZM164.804 6.99996C165.357 6.99996 165.804 6.55224 165.804 5.99996C165.804 5.44768 165.357 4.99996 164.804 4.99996V6.99996ZM170.806 4.99996C170.254 4.99996 169.806 5.44768 169.806 5.99996C169.806 6.55224 170.254 6.99996 170.806 6.99996V4.99996ZM176.808 6.99996C177.361 6.99996 177.808 6.55224 177.808 5.99996C177.808 5.44768 177.361 4.99996 176.808 4.99996V6.99996ZM182.81 4.99996C182.258 4.99996 181.81 5.44768 181.81 5.99996C181.81 6.55224 182.258 6.99996 182.81 6.99996V4.99996ZM188.812 6.99996C189.365 6.99996 189.812 6.55224 189.812 5.99996C189.812 5.44768 189.365 4.99996 188.812 4.99996V6.99996ZM194.815 4.99996C194.262 4.99996 193.815 5.44768 193.815 5.99996C193.815 6.55224 194.262 6.99996 194.815 6.99996V4.99996ZM200.817 6.99996C201.369 6.99996 201.817 6.55224 201.817 5.99996C201.817 5.44768 201.369 4.99996 200.817 4.99996V6.99996ZM206.819 4.99996C206.266 4.99996 205.819 5.44768 205.819 5.99996C205.819 6.55224 206.266 6.99996 206.819 6.99996V4.99996ZM212.821 6.99996C213.373 6.99996 213.821 6.55224 213.821 5.99996C213.821 5.44768 213.373 4.99996 212.821 4.99996V6.99996ZM218.823 4.99996C218.27 4.99996 217.823 5.44768 217.823 5.99996C217.823 6.55224 218.27 6.99996 218.823 6.99996V4.99996ZM224.825 6.99996C225.377 6.99996 225.825 6.55224 225.825 5.99996C225.825 5.44768 225.377 4.99996 224.825 4.99996V6.99996ZM230.827 4.99996C230.275 4.99996 229.827 5.44768 229.827 5.99996C229.827 6.55224 230.275 6.99996 230.827 6.99996V4.99996ZM236.829 6.99996C237.381 6.99996 237.829 6.55224 237.829 5.99996C237.829 5.44768 237.381 4.99996 236.829 4.99996V6.99996ZM242.831 4.99996C242.279 4.99996 241.831 5.44768 241.831 5.99996C241.831 6.55224 242.279 6.99996 242.831 6.99996V4.99996ZM248.833 6.99996C249.385 6.99996 249.833 6.55224 249.833 5.99996C249.833 5.44768 249.385 4.99996 248.833 4.99996V6.99996ZM254.835 4.99996C254.283 4.99996 253.835 5.44768 253.835 5.99996C253.835 6.55224 254.283 6.99996 254.835 6.99996V4.99996ZM260.837 6.99996C261.389 6.99996 261.837 6.55224 261.837 5.99996C261.837 5.44768 261.389 4.99996 260.837 4.99996V6.99996ZM266.839 4.99996C266.287 4.99996 265.839 5.44768 265.839 5.99996C265.839 6.55224 266.287 6.99996 266.839 6.99996V4.99996ZM272.841 6.99996C273.393 6.99996 273.841 6.55224 273.841 5.99996C273.841 5.44768 273.393 4.99996 272.841 4.99996V6.99996ZM278.843 4.99996C278.291 4.99996 277.843 5.44768 277.843 5.99996C277.843 6.55224 278.291 6.99996 278.843 6.99996V4.99996ZM284.845 6.99996C285.397 6.99996 285.845 6.55224 285.845 5.99996C285.845 5.44768 285.397 4.99996 284.845 4.99996V6.99996ZM290.847 4.99996C290.295 4.99996 289.847 5.44768 289.847 5.99996C289.847 6.55224 290.295 6.99996 290.847 6.99996V4.99996ZM296.849 6.99996C297.402 6.99996 297.849 6.55224 297.849 5.99996C297.849 5.44768 297.402 4.99996 296.849 4.99996V6.99996ZM302.851 4.99996C302.299 4.99996 301.851 5.44768 301.851 5.99996C301.851 6.55224 302.299 6.99996 302.851 6.99996V4.99996ZM308.853 6.99996C309.406 6.99996 309.853 6.55224 309.853 5.99996C309.853 5.44768 309.406 4.99996 308.853 4.99996V6.99996ZM314.855 4.99996C314.303 4.99996 313.855 5.44768 313.855 5.99996C313.855 6.55224 314.303 6.99996 314.855 6.99996V4.99996ZM320.857 6.99996C321.41 6.99996 321.857 6.55224 321.857 5.99996C321.857 5.44768 321.41 4.99996 320.857 4.99996V6.99996ZM326.86 4.99996C326.307 4.99996 325.86 5.44768 325.86 5.99996C325.86 6.55224 326.307 6.99996 326.86 6.99996V4.99996ZM332.862 6.99996C333.414 6.99996 333.862 6.55224 333.862 5.99996C333.862 5.44768 333.414 4.99996 332.862 4.99996V6.99996ZM338.864 4.99996C338.311 4.99996 337.864 5.44768 337.864 5.99996C337.864 6.55224 338.311 6.99996 338.864 6.99996V4.99996ZM344.866 6.99996C345.418 6.99996 345.866 6.55224 345.866 5.99996C345.866 5.44768 345.418 4.99996 344.866 4.99996V6.99996ZM350.868 4.99996C350.315 4.99996 349.868 5.44768 349.868 5.99996C349.868 6.55224 350.315 6.99996 350.868 6.99996V4.99996ZM356.87 6.99996C357.422 6.99996 357.87 6.55224 357.87 5.99996C357.87 5.44768 357.422 4.99996 356.87 4.99996V6.99996ZM362.872 4.99996C362.32 4.99996 361.872 5.44768 361.872 5.99996C361.872 6.55224 362.32 6.99996 362.872 6.99996V4.99996ZM368.874 6.99996C369.426 6.99996 369.874 6.55224 369.874 5.99996C369.874 5.44768 369.426 4.99996 368.874 4.99996V6.99996ZM374.876 4.99996C374.324 4.99996 373.876 5.44768 373.876 5.99996C373.876 6.55224 374.324 6.99996 374.876 6.99996V4.99996ZM380.878 6.99996C381.43 6.99996 381.878 6.55224 381.878 5.99996C381.878 5.44768 381.43 4.99996 380.878 4.99996V6.99996ZM386.88 4.99996C386.328 4.99996 385.88 5.44768 385.88 5.99996C385.88 6.55224 386.328 6.99996 386.88 6.99996V4.99996ZM392.882 6.99996C393.434 6.99996 393.882 6.55224 393.882 5.99996C393.882 5.44768 393.434 4.99996 392.882 4.99996V6.99996ZM398.884 4.99996C398.332 4.99996 397.884 5.44768 397.884 5.99996C397.884 6.55224 398.332 6.99996 398.884 6.99996V4.99996ZM404.886 6.99996C405.438 6.99996 405.886 6.55224 405.886 5.99996C405.886 5.44768 405.438 4.99996 404.886 4.99996V6.99996ZM410.888 4.99996C410.336 4.99996 409.888 5.44768 409.888 5.99996C409.888 6.55224 410.336 6.99996 410.888 6.99996V4.99996ZM416.89 6.99996C417.442 6.99996 417.89 6.55224 417.89 5.99996C417.89 5.44768 417.442 4.99996 416.89 4.99996V6.99996ZM422.892 4.99996C422.34 4.99996 421.892 5.44768 421.892 5.99996C421.892 6.55224 422.34 6.99996 422.892 6.99996V4.99996ZM428.894 6.99996C429.447 6.99996 429.894 6.55224 429.894 5.99996C429.894 5.44768 429.447 4.99996 428.894 4.99996V6.99996ZM434.896 4.99996C434.344 4.99996 433.896 5.44768 433.896 5.99996C433.896 6.55224 434.344 6.99996 434.896 6.99996V4.99996ZM440.898 6.99996C441.451 6.99996 441.898 6.55224 441.898 5.99996C441.898 5.44768 441.451 4.99996 440.898 4.99996V6.99996ZM446.9 4.99996C446.348 4.99996 445.9 5.44768 445.9 5.99996C445.9 6.55224 446.348 6.99996 446.9 6.99996V4.99996ZM452.902 6.99996C453.455 6.99996 453.902 6.55224 453.902 5.99996C453.902 5.44768 453.455 4.99996 452.902 4.99996V6.99996ZM458.905 4.99996C458.352 4.99996 457.905 5.44768 457.905 5.99996C457.905 6.55224 458.352 6.99996 458.905 6.99996V4.99996ZM464.907 6.99996C465.459 6.99996 465.907 6.55224 465.907 5.99996C465.907 5.44768 465.459 4.99996 464.907 4.99996V6.99996ZM470.909 4.99996C470.356 4.99996 469.909 5.44768 469.909 5.99996C469.909 6.55224 470.356 6.99996 470.909 6.99996V4.99996ZM476.911 6.99996C477.463 6.99996 477.911 6.55224 477.911 5.99996C477.911 5.44768 477.463 4.99996 476.911 4.99996V6.99996ZM482.913 4.99996C482.36 4.99996 481.913 5.44768 481.913 5.99996C481.913 6.55224 482.36 6.99996 482.913 6.99996V4.99996ZM488.915 6.99996C489.467 6.99996 489.915 6.55224 489.915 5.99996C489.915 5.44768 489.467 4.99996 488.915 4.99996V6.99996ZM494.917 4.99996C494.365 4.99996 493.917 5.44768 493.917 5.99996C493.917 6.55224 494.365 6.99996 494.917 6.99996V4.99996ZM500.919 6.99996C501.471 6.99996 501.919 6.55224 501.919 5.99996C501.919 5.44768 501.471 4.99996 500.919 4.99996V6.99996ZM506.921 4.99996C506.369 4.99996 505.921 5.44768 505.921 5.99996C505.921 6.55224 506.369 6.99996 506.921 6.99996V4.99996ZM512.923 6.99996C513.475 6.99996 513.923 6.55224 513.923 5.99996C513.923 5.44768 513.475 4.99996 512.923 4.99996V6.99996ZM518.925 4.99996C518.373 4.99996 517.925 5.44768 517.925 5.99996C517.925 6.55224 518.373 6.99996 518.925 6.99996V4.99996ZM524.927 6.99996C525.479 6.99996 525.927 6.55224 525.927 5.99996C525.927 5.44768 525.479 4.99996 524.927 4.99996V6.99996ZM530.929 4.99996C530.377 4.99996 529.929 5.44768 529.929 5.99996C529.929 6.55224 530.377 6.99996 530.929 6.99996V4.99996ZM536.931 6.99996C537.483 6.99996 537.931 6.55224 537.931 5.99996C537.931 5.44768 537.483 4.99996 536.931 4.99996V6.99996ZM542.933 4.99996C542.381 4.99996 541.933 5.44768 541.933 5.99996C541.933 6.55224 542.381 6.99996 542.933 6.99996V4.99996ZM548.935 6.99996C549.488 6.99996 549.935 6.55224 549.935 5.99996C549.935 5.44768 549.488 4.99996 548.935 4.99996V6.99996ZM554.937 4.99996C554.385 4.99996 553.937 5.44768 553.937 5.99996C553.937 6.55224 554.385 6.99996 554.937 6.99996V4.99996ZM560.94 6.99996C561.492 6.99996 561.94 6.55224 561.94 5.99996C561.94 5.44768 561.492 4.99996 560.94 4.99996V6.99996ZM566.942 4.99996C566.389 4.99996 565.942 5.44768 565.942 5.99996C565.942 6.55224 566.389 6.99996 566.942 6.99996V4.99996ZM572.944 6.99996C573.496 6.99996 573.944 6.55224 573.944 5.99996C573.944 5.44768 573.496 4.99996 572.944 4.99996V6.99996ZM578.946 4.99996C578.393 4.99996 577.946 5.44768 577.946 5.99996C577.946 6.55224 578.393 6.99996 578.946 6.99996V4.99996ZM584.948 6.99996C585.5 6.99996 585.948 6.55224 585.948 5.99996C585.948 5.44768 585.5 4.99996 584.948 4.99996V6.99996ZM590.95 4.99996C590.398 4.99996 589.95 5.44768 589.95 5.99996C589.95 6.55224 590.398 6.99996 590.95 6.99996V4.99996ZM596.952 6.99996C597.504 6.99996 597.952 6.55224 597.952 5.99996C597.952 5.44768 597.504 4.99996 596.952 4.99996V6.99996ZM602.954 4.99996C602.402 4.99996 601.954 5.44768 601.954 5.99996C601.954 6.55224 602.402 6.99996 602.954 6.99996V4.99996ZM608.956 6.99996C609.508 6.99996 609.956 6.55224 609.956 5.99996C609.956 5.44768 609.508 4.99996 608.956 4.99996V6.99996ZM614.958 4.99996C614.406 4.99996 613.958 5.44768 613.958 5.99996C613.958 6.55224 614.406 6.99996 614.958 6.99996V4.99996ZM620.96 6.99996C621.513 6.99996 621.96 6.55224 621.96 5.99996C621.96 5.44768 621.513 4.99996 620.96 4.99996V6.99996ZM626.962 4.99996C626.41 4.99996 625.962 5.44768 625.962 5.99996C625.962 6.55224 626.41 6.99996 626.962 6.99996V4.99996ZM632.964 6.99996C633.517 6.99996 633.964 6.55224 633.964 5.99996C633.964 5.44768 633.517 4.99996 632.964 4.99996V6.99996ZM638.966 4.99996C638.414 4.99996 637.966 5.44768 637.966 5.99996C637.966 6.55224 638.414 6.99996 638.966 6.99996V4.99996ZM644.969 6.99996C645.521 6.99996 645.969 6.55224 645.969 5.99996C645.969 5.44768 645.521 4.99996 644.969 4.99996V6.99996ZM650.971 4.99996C650.418 4.99996 649.971 5.44768 649.971 5.99996C649.971 6.55224 650.418 6.99996 650.971 6.99996V4.99996ZM656.973 6.99996C657.525 6.99996 657.973 6.55224 657.973 5.99996C657.973 5.44768 657.525 4.99996 656.973 4.99996V6.99996ZM662.975 4.99996C662.422 4.99996 661.975 5.44768 661.975 5.99996C661.975 6.55224 662.422 6.99996 662.975 6.99996V4.99996ZM668.977 6.99996C669.529 6.99996 669.977 6.55224 669.977 5.99996C669.977 5.44768 669.529 4.99996 668.977 4.99996V6.99996ZM674.979 4.99996C674.427 4.99996 673.979 5.44768 673.979 5.99996C673.979 6.55224 674.427 6.99996 674.979 6.99996V4.99996ZM680.981 6.99996C681.533 6.99996 681.981 6.55224 681.981 5.99996C681.981 5.44768 681.533 4.99996 680.981 4.99996V6.99996ZM686.983 4.99996C686.431 4.99996 685.983 5.44768 685.983 5.99996C685.983 6.55224 686.431 6.99996 686.983 6.99996V4.99996ZM692.985 6.99996C693.537 6.99996 693.985 6.55224 693.985 5.99996C693.985 5.44768 693.537 4.99996 692.985 4.99996V6.99996ZM698.987 4.99996C698.435 4.99996 697.987 5.44768 697.987 5.99996C697.987 6.55224 698.435 6.99996 698.987 6.99996V4.99996ZM704.989 6.99996C705.542 6.99996 705.989 6.55224 705.989 5.99996C705.989 5.44768 705.542 4.99996 704.989 4.99996V6.99996ZM710.991 4.99996C710.439 4.99996 709.991 5.44768 709.991 5.99996C709.991 6.55224 710.439 6.99996 710.991 6.99996V4.99996ZM716.993 6.99996C717.546 6.99996 717.993 6.55224 717.993 5.99996C717.993 5.44768 717.546 4.99996 716.993 4.99996V6.99996ZM722.996 4.99996C722.443 4.99996 721.996 5.44768 721.996 5.99996C721.996 6.55224 722.443 6.99996 722.996 6.99996V4.99996ZM728.998 6.99996C729.55 6.99996 729.998 6.55224 729.998 5.99996C729.998 5.44768 729.55 4.99996 728.998 4.99996V6.99996ZM735 4.99996C734.447 4.99996 734 5.44768 734 5.99996C734 6.55224 734.447 6.99996 735 6.99996V4.99996ZM5.75033 6.99996H8.75135V4.99996H5.75033V6.99996ZM14.7534 6.99996H20.7554V4.99996H14.7534V6.99996ZM26.7575 6.99996H32.7595V4.99996H26.7575V6.99996ZM38.7616 6.99996H44.7636V4.99996H38.7616V6.99996ZM50.7657 6.99996H56.7677V4.99996H50.7657V6.99996ZM62.7698 6.99996H68.7718V4.99996H62.7698V6.99996ZM74.7739 6.99996H80.7759V4.99996H74.7739V6.99996ZM86.778 6.99996H92.78V4.99996H86.778V6.99996ZM98.7821 6.99996H104.784V4.99996H98.7821V6.99996ZM110.786 6.99996H116.788V4.99996H110.786V6.99996ZM122.79 6.99996H128.792V4.99996H122.79V6.99996ZM134.794 6.99996H140.796V4.99996H134.794V6.99996ZM146.798 6.99996H152.8V4.99996H146.798V6.99996ZM158.802 6.99996H164.804V4.99996H158.802V6.99996ZM170.806 6.99996H176.808V4.99996H170.806V6.99996ZM182.81 6.99996H188.812V4.99996H182.81V6.99996ZM194.815 6.99996H200.817V4.99996H194.815V6.99996ZM206.819 6.99996H212.821V4.99996H206.819V6.99996ZM218.823 6.99996H224.825V4.99996H218.823V6.99996ZM230.827 6.99996H236.829V4.99996H230.827V6.99996ZM242.831 6.99996H248.833V4.99996H242.831V6.99996ZM254.835 6.99996H260.837V4.99996H254.835V6.99996ZM266.839 6.99996H272.841V4.99996H266.839V6.99996ZM278.843 6.99996H284.845V4.99996H278.843V6.99996ZM290.847 6.99996H296.849V4.99996H290.847V6.99996ZM302.851 6.99996H308.853V4.99996H302.851V6.99996ZM314.855 6.99996H320.857V4.99996H314.855V6.99996ZM326.86 6.99996H332.862V4.99996H326.86V6.99996ZM338.864 6.99996H344.866V4.99996H338.864V6.99996ZM350.868 6.99996H356.87V4.99996H350.868V6.99996ZM362.872 6.99996H368.874V4.99996H362.872V6.99996ZM374.876 6.99996H380.878V4.99996H374.876V6.99996ZM386.88 6.99996H392.882V4.99996H386.88V6.99996ZM398.884 6.99996H404.886V4.99996H398.884V6.99996ZM410.888 6.99996H416.89V4.99996H410.888V6.99996ZM422.892 6.99996H428.894V4.99996H422.892V6.99996ZM434.896 6.99996H440.898V4.99996H434.896V6.99996ZM446.9 6.99996H452.902V4.99996H446.9V6.99996ZM458.905 6.99996H464.907V4.99996H458.905V6.99996ZM470.909 6.99996H476.911V4.99996H470.909V6.99996ZM482.913 6.99996H488.915V4.99996H482.913V6.99996ZM494.917 6.99996H500.919V4.99996H494.917V6.99996ZM506.921 6.99996H512.923V4.99996H506.921V6.99996ZM518.925 6.99996H524.927V4.99996H518.925V6.99996ZM530.929 6.99996H536.931V4.99996H530.929V6.99996ZM542.933 6.99996H548.935V4.99996H542.933V6.99996ZM554.937 6.99996H560.94V4.99996H554.937V6.99996ZM566.942 6.99996H572.944V4.99996H566.942V6.99996ZM578.946 6.99996H584.948V4.99996H578.946V6.99996ZM590.95 6.99996H596.952V4.99996H590.95V6.99996ZM602.954 6.99996H608.956V4.99996H602.954V6.99996ZM614.958 6.99996H620.96V4.99996H614.958V6.99996ZM626.962 6.99996H632.964V4.99996H626.962V6.99996ZM638.966 6.99996H644.969V4.99996H638.966V6.99996ZM650.971 6.99996H656.973V4.99996H650.971V6.99996ZM662.975 6.99996H668.977V4.99996H662.975V6.99996ZM674.979 6.99996H680.981V4.99996H674.979V6.99996ZM686.983 6.99996H692.985V4.99996H686.983V6.99996ZM698.987 6.99996H704.989V4.99996H698.987V6.99996ZM710.991 6.99996H716.993V4.99996H710.991V6.99996ZM722.996 6.99996H728.998V4.99996H722.996V6.99996ZM735 6.99996H738V4.99996H735V6.99996Z" fill="#262626"/>
<path d="M2 6C2 3.23858 4.23858 1 7 1C9.76142 1 12 3.23858 12 6C12 8.76142 9.76142 11 7 11C4.23858 11 2 8.76142 2 6Z" fill="#171717" stroke="#00A6F4" stroke-width="2"/>
</g>
<defs>
<clipPath id="clip0_4096_4239">
<rect width="738" height="12" fill="white"/>
</clipPath>
</defs>
</svg>
