<svg width="336" height="191" viewBox="0 0 336 191" fill="none" xmlns="http://www.w3.org/2000/svg">
<mask id="mask0_4096_4255" style="mask-type:luminance" maskUnits="userSpaceOnUse" x="0" y="0" width="336" height="191">
<path d="M336 0.526855H0V190.527H336V0.526855Z" fill="white"/>
</mask>
<g mask="url(#mask0_4096_4255)">
<path d="M65.5 7.52692H18.5C17.1193 7.52692 16 8.6462 16 10.0269C16 11.4076 17.1193 12.5269 18.5 12.5269H65.5C66.8807 12.5269 68 11.4076 68 10.0269C68 8.6462 66.8807 7.52692 65.5 7.52692Z" fill="#404040"/>
<path d="M135.5 27.5269H24.5C23.1193 27.5269 22 28.6462 22 30.0269C22 31.4076 23.1193 32.5269 24.5 32.5269H135.5C136.881 32.5269 138 31.4076 138 30.0269C138 28.6462 136.881 27.5269 135.5 27.5269Z" fill="#404040"/>
<path d="M149.5 27.5269H237.5C238.881 27.5269 240 28.6462 240 30.0269C240 31.4076 238.881 32.5269 237.5 32.5269H149.5C148.119 32.5269 147 31.4076 147 30.0269C147 28.6462 148.119 27.5269 149.5 27.5269Z" fill="#404040"/>
<path d="M251.5 27.5269H333.5C334.881 27.5269 336 28.6462 336 30.0269C336 31.4076 334.881 32.5269 333.5 32.5269H251.5C250.119 32.5269 249 31.4076 249 30.0269C249 28.6462 250.119 27.5269 251.5 27.5269Z" fill="#404040"/>
<path d="M105.5 45.5269H39.5C38.1193 45.5269 37 46.6462 37 48.0269C37 49.4076 38.1193 50.5269 39.5 50.5269H105.5C106.881 50.5269 108 49.4076 108 48.0269C108 46.6462 106.881 45.5269 105.5 45.5269Z" fill="#404040"/>
<path d="M119.5 45.5269H171.5C172.881 45.5269 174 46.6462 174 48.0269C174 49.4076 172.881 50.5269 171.5 50.5269H119.5C118.119 50.5269 117 49.4076 117 48.0269C117 46.6462 118.119 45.5269 119.5 45.5269Z" fill="#404040"/>
<path d="M185.5 45.5269H233.5C234.881 45.5269 236 46.6462 236 48.0269C236 49.4076 234.881 50.5269 233.5 50.5269H185.5C184.119 50.5269 183 49.4076 183 48.0269C183 46.6462 184.119 45.5269 185.5 45.5269Z" fill="#404040"/>
<path d="M24.5 121.527H76.5C77.8807 121.527 79 122.646 79 124.027C79 125.408 77.8807 126.527 76.5 126.527H24.5C23.1193 126.527 22 125.408 22 124.027C22 122.646 23.1193 121.527 24.5 121.527Z" fill="#404040"/>
<path d="M90.5 121.527H138.5C139.881 121.527 141 122.646 141 124.027C141 125.408 139.881 126.527 138.5 126.527H90.5C89.1193 126.527 88 125.408 88 124.027C88 122.646 89.1193 121.527 90.5 121.527Z" fill="#404040"/>
<path d="M150.5 83.5269H39.5C38.1193 83.5269 37 84.6462 37 86.0269C37 87.4076 38.1193 88.5269 39.5 88.5269H150.5C151.881 88.5269 153 87.4076 153 86.0269C153 84.6462 151.881 83.5269 150.5 83.5269Z" fill="#00A6F4"/>
<path d="M164.5 83.5269H252.5C253.881 83.5269 255 84.6462 255 86.0269C255 87.4076 253.881 88.5269 252.5 88.5269H164.5C163.119 88.5269 162 87.4076 162 86.0269C162 84.6462 163.119 83.5269 164.5 83.5269Z" fill="#00A6F4"/>
<path d="M266.5 83.5269H299.5C300.881 83.5269 302 84.6462 302 86.0269C302 87.4076 300.881 88.5269 299.5 88.5269H266.5C265.119 88.5269 264 87.4076 264 86.0269C264 84.6462 265.119 83.5269 266.5 83.5269Z" fill="#00A6F4"/>
<path d="M105.5 102.527H39.5C38.1193 102.527 37 103.646 37 105.027C37 106.408 38.1193 107.527 39.5 107.527H105.5C106.881 107.527 108 106.408 108 105.027C108 103.646 106.881 102.527 105.5 102.527Z" fill="#00A6F4"/>
<path d="M119.5 102.527H171.5C172.881 102.527 174 103.646 174 105.027C174 106.408 172.881 107.527 171.5 107.527H119.5C118.119 107.527 117 106.408 117 105.027C117 103.646 118.119 102.527 119.5 102.527Z" fill="#00A6F4"/>
<path d="M185.5 102.527H233.5C234.881 102.527 236 103.646 236 105.027C236 106.408 234.881 107.527 233.5 107.527H185.5C184.119 107.527 183 106.408 183 105.027C183 103.646 184.119 102.527 185.5 102.527Z" fill="#00A6F4"/>
<path d="M200.5 64.5269H24.5C23.1193 64.5269 22 65.6462 22 67.0269C22 68.4076 23.1193 69.5269 24.5 69.5269H200.5C201.881 69.5269 203 68.4076 203 67.0269C203 65.6462 201.881 64.5269 200.5 64.5269Z" fill="#404040"/>
<path d="M135.5 140.527H24.5C23.1193 140.527 22 141.646 22 143.027C22 144.408 23.1193 145.527 24.5 145.527H135.5C136.881 145.527 138 144.408 138 143.027C138 141.646 136.881 140.527 135.5 140.527Z" fill="#404040"/>
<path d="M105.5 159.527H39.5C38.1193 159.527 37 160.646 37 162.027C37 163.408 38.1193 164.527 39.5 164.527H105.5C106.881 164.527 108 163.408 108 162.027C108 160.646 106.881 159.527 105.5 159.527Z" fill="#404040"/>
<path d="M119.5 159.527H171.5C172.881 159.527 174 160.646 174 162.027C174 163.408 172.881 164.527 171.5 164.527H119.5C118.119 164.527 117 163.408 117 162.027C117 160.646 118.119 159.527 119.5 159.527Z" fill="#404040"/>
<path d="M185.5 159.527H233.5C234.881 159.527 236 160.646 236 162.027C236 163.408 234.881 164.527 233.5 164.527H185.5C184.119 164.527 183 163.408 183 162.027C183 160.646 184.119 159.527 185.5 159.527Z" fill="#404040"/>
<path d="M200.5 178.527H24.5C23.1193 178.527 22 179.646 22 181.027C22 182.408 23.1193 183.527 24.5 183.527H200.5C201.881 183.527 203 182.408 203 181.027C203 179.646 201.881 178.527 200.5 178.527Z" fill="#404040"/>
<path d="M214.5 64.5269H328.5C329.881 64.5269 331 65.6462 331 67.0269C331 68.4076 329.881 69.5269 328.5 69.5269H214.5C213.119 69.5269 212 68.4076 212 67.0269C212 65.6462 213.119 64.5269 214.5 64.5269Z" fill="#404040"/>
<path d="M0.766883 13.5269V12.8549H2.70938V7.04839L0.871883 7.41589V6.88039L2.92988 6.17688H3.44438V12.8549H5.49188V13.5269H0.766883ZM0.808883 32.5269V31.9599C1.59288 31.3369 2.26838 30.7664 2.83538 30.2484C3.40938 29.7304 3.85038 29.2334 4.15838 28.7574C4.47338 28.2744 4.63088 27.7739 4.63088 27.2559C4.63088 26.7799 4.49438 26.4054 4.22138 26.1324C3.95538 25.8594 3.59488 25.7229 3.13988 25.7229C2.79688 25.7229 2.50638 25.7964 2.26838 25.9434C2.03038 26.0904 1.85188 26.2864 1.73288 26.5314C1.61388 26.7694 1.55438 27.0354 1.55438 27.3294H0.819383C0.819383 26.8604 0.920883 26.4579 1.12388 26.1219C1.32688 25.7789 1.60338 25.5164 1.95338 25.3344C2.30338 25.1454 2.69888 25.0509 3.13988 25.0509C3.84688 25.0509 4.39638 25.2504 4.78838 25.6494C5.18738 26.0484 5.38688 26.5804 5.38688 27.2454C5.38688 27.6934 5.28888 28.1239 5.09288 28.5369C4.90388 28.9429 4.64488 29.3384 4.31588 29.7234C3.99388 30.1014 3.62988 30.4689 3.22388 30.8259C2.82488 31.1759 2.41188 31.5189 1.98488 31.8549H5.58638V32.5269H0.808883ZM3.26588 51.6529C2.79688 51.6529 2.36988 51.5654 1.98488 51.3904C1.60688 51.2084 1.30238 50.9494 1.07138 50.6134C0.847383 50.2704 0.724883 49.8574 0.703883 49.3744H1.45988C1.46688 49.6684 1.54388 49.9379 1.69088 50.1829C1.83788 50.4209 2.04438 50.6134 2.31038 50.7604C2.57638 50.9074 2.89488 50.9809 3.26588 50.9809C3.81888 50.9809 4.23888 50.8374 4.52588 50.5504C4.81988 50.2634 4.96688 49.8749 4.96688 49.3849C4.96688 49.0489 4.88288 48.7724 4.71488 48.5554C4.54688 48.3314 4.31938 48.1669 4.03238 48.0619C3.75238 47.9499 3.43738 47.8939 3.08738 47.8939H2.45738V47.2219H3.01388C3.52488 47.2219 3.92738 47.1099 4.22138 46.8859C4.51538 46.6549 4.66238 46.3364 4.66238 45.9304C4.66238 45.5804 4.54338 45.2934 4.30538 45.0694C4.06738 44.8384 3.72088 44.7229 3.26588 44.7229C2.83888 44.7229 2.48888 44.8454 2.21588 45.0904C1.94988 45.3284 1.79938 45.6434 1.76438 46.0354H1.00838C1.02938 45.6504 1.13438 45.3109 1.32338 45.0169C1.51938 44.7159 1.78188 44.4814 2.11088 44.3134C2.43988 44.1384 2.82488 44.0509 3.26588 44.0509C3.72788 44.0509 4.11988 44.1349 4.44188 44.3029C4.76388 44.4709 5.00538 44.6949 5.16638 44.9749C5.33438 45.2549 5.41838 45.5594 5.41838 45.8884C5.41838 46.2524 5.30638 46.5779 5.08238 46.8649C4.85838 47.1449 4.58538 47.3444 4.26338 47.4634V47.5264C4.69038 47.6524 5.04038 47.8659 5.31338 48.1669C5.58638 48.4609 5.72288 48.8634 5.72288 49.3744C5.72288 49.8014 5.62138 50.1864 5.41838 50.5294C5.22238 50.8724 4.94238 51.1454 4.57838 51.3484C4.21438 51.5514 3.77688 51.6529 3.26588 51.6529ZM4.11638 70.5269V68.7524H0.567383V68.1959L3.96938 63.1769H4.84088V68.0804H5.96438V68.7524H4.84088V70.5269H4.11638ZM1.39688 68.0804H4.14788V64.0589L1.39688 68.0804ZM3.15038 89.6529C2.65338 89.6529 2.22638 89.5584 1.86938 89.3694C1.51938 89.1804 1.23938 88.9249 1.02938 88.6029C0.826383 88.2809 0.696883 87.9204 0.640883 87.5214H1.39688C1.46688 87.9484 1.65938 88.2984 1.97438 88.5714C2.28938 88.8444 2.68488 88.9809 3.16088 88.9809C3.53888 88.9809 3.86088 88.8969 4.12688 88.7289C4.39288 88.5609 4.59588 88.3334 4.73588 88.0464C4.88288 87.7524 4.95638 87.4234 4.95638 87.0594C4.95638 86.4784 4.79538 86.0234 4.47338 85.6944C4.15138 85.3584 3.72788 85.1904 3.20288 85.1904C2.78288 85.1904 2.42238 85.2849 2.12138 85.4739C1.82738 85.6629 1.58938 85.9044 1.40738 86.1984H0.714383L1.34438 82.1769H5.21888V82.8489H1.92188L1.51238 85.2219H1.55438C1.72238 85.0399 1.95338 84.8789 2.24738 84.7389C2.54838 84.5919 2.88438 84.5184 3.25538 84.5184C3.72438 84.5184 4.14088 84.6199 4.50488 84.8229C4.86888 85.0189 5.15238 85.3059 5.35538 85.6839C5.56538 86.0619 5.67038 86.5169 5.67038 87.0489C5.67038 87.5109 5.57238 87.9414 5.37638 88.3404C5.18738 88.7324 4.90388 89.0509 4.52588 89.2959C4.15488 89.5339 3.69638 89.6529 3.15038 89.6529ZM3.29738 108.653C2.68838 108.653 2.18088 108.506 1.77488 108.212C1.37588 107.911 1.07838 107.498 0.882383 106.973C0.686383 106.448 0.588383 105.842 0.588383 105.156C0.588383 104.351 0.696883 103.641 0.913883 103.025C1.13788 102.409 1.45988 101.926 1.87988 101.576C2.29988 101.226 2.80738 101.051 3.40238 101.051C3.85738 101.051 4.24938 101.142 4.57838 101.324C4.90738 101.499 5.16638 101.737 5.35538 102.038C5.54438 102.332 5.65638 102.664 5.69138 103.035H4.98788C4.91788 102.636 4.74288 102.318 4.46288 102.08C4.18288 101.842 3.82938 101.723 3.40238 101.723C3.03138 101.723 2.68838 101.842 2.37338 102.08C2.06538 102.311 1.81338 102.671 1.61738 103.161C1.42138 103.651 1.30938 104.278 1.28138 105.041H1.32338C1.49838 104.712 1.75738 104.428 2.10038 104.19C2.45038 103.952 2.87738 103.833 3.38138 103.833C3.82238 103.833 4.21788 103.938 4.56788 104.148C4.92488 104.358 5.20488 104.642 5.40788 104.999C5.61788 105.349 5.72288 105.748 5.72288 106.196C5.72288 106.637 5.62138 107.046 5.41838 107.424C5.21538 107.795 4.93188 108.093 4.56788 108.317C4.21088 108.541 3.78738 108.653 3.29738 108.653ZM3.24488 107.981C3.58788 107.981 3.88888 107.904 4.14788 107.75C4.40688 107.596 4.60638 107.389 4.74638 107.13C4.89338 106.864 4.96688 106.567 4.96688 106.238C4.96688 105.909 4.89338 105.615 4.74638 105.356C4.60638 105.09 4.40688 104.883 4.14788 104.736C3.88888 104.582 3.58788 104.505 3.24488 104.505C2.90188 104.505 2.60088 104.582 2.34188 104.736C2.08288 104.883 1.87988 105.09 1.73288 105.356C1.58588 105.615 1.51238 105.912 1.51238 106.248C1.51238 106.577 1.58588 106.875 1.73288 107.141C1.87988 107.4 2.08288 107.606 2.34188 107.76C2.60088 107.907 2.90188 107.981 3.24488 107.981ZM1.89038 127.527L4.80938 120.849H0.693383V120.177H5.56538V120.786L2.67788 127.527H1.89038ZM3.15038 146.653C2.67438 146.653 2.25438 146.562 1.89038 146.38C1.52638 146.198 1.24288 145.949 1.03988 145.634C0.836883 145.312 0.735383 144.952 0.735383 144.553C0.735383 144.084 0.861383 143.685 1.11338 143.356C1.36538 143.027 1.65588 142.796 1.98488 142.663V142.621C1.66288 142.474 1.40738 142.26 1.21838 141.98C1.02938 141.693 0.934883 141.368 0.934883 141.004C0.934883 140.64 1.02588 140.311 1.20788 140.017C1.39688 139.723 1.65588 139.488 1.98488 139.313C2.32088 139.138 2.70938 139.051 3.15038 139.051C3.57038 139.051 3.94488 139.138 4.27388 139.313C4.60988 139.488 4.87588 139.723 5.07188 140.017C5.26788 140.311 5.36588 140.64 5.36588 141.004C5.36588 141.368 5.27138 141.693 5.08238 141.98C4.89338 142.26 4.63788 142.474 4.31588 142.621V142.663C4.64488 142.796 4.93538 143.027 5.18738 143.356C5.43938 143.685 5.56538 144.084 5.56538 144.553C5.56538 144.952 5.46388 145.312 5.26088 145.634C5.05788 145.949 4.77438 146.198 4.41038 146.38C4.04638 146.562 3.62638 146.653 3.15038 146.653ZM3.15038 142.327C3.61238 142.327 3.97288 142.208 4.23188 141.97C4.49788 141.725 4.63088 141.41 4.63088 141.025C4.63088 140.633 4.49788 140.318 4.23188 140.08C3.97288 139.842 3.61238 139.723 3.15038 139.723C2.68838 139.723 2.32438 139.842 2.05838 140.08C1.79938 140.318 1.66988 140.633 1.66988 141.025C1.66988 141.41 1.79938 141.725 2.05838 141.97C2.32438 142.208 2.68838 142.327 3.15038 142.327ZM3.15038 145.981C3.64038 145.981 4.03938 145.855 4.34738 145.603C4.65538 145.344 4.80938 144.969 4.80938 144.479C4.80938 143.982 4.65538 143.608 4.34738 143.356C4.03938 143.104 3.64038 142.978 3.15038 142.978C2.66038 142.978 2.26138 143.104 1.95338 143.356C1.64538 143.608 1.49138 143.982 1.49138 144.479C1.49138 144.969 1.64538 145.344 1.95338 145.603C2.26138 145.855 2.66038 145.981 3.15038 145.981ZM3.02438 165.653C2.59038 165.653 2.20188 165.565 1.85888 165.39C1.51588 165.208 1.23938 164.967 1.02938 164.666C0.826383 164.365 0.707383 164.032 0.672383 163.668H1.38638C1.45638 164.06 1.63488 164.379 1.92188 164.624C2.20888 164.862 2.57638 164.981 3.02438 164.981C3.60538 164.981 4.08138 164.715 4.45238 164.183C4.83038 163.644 5.04038 162.804 5.08238 161.663H5.04038C4.84438 162.013 4.59238 162.303 4.28438 162.534C3.97638 162.758 3.54238 162.87 2.98238 162.87C2.54138 162.87 2.14238 162.765 1.78538 162.555C1.43538 162.345 1.15538 162.062 0.945383 161.705C0.742383 161.348 0.640883 160.949 0.640883 160.508C0.640883 160.06 0.742383 159.65 0.945383 159.279C1.14838 158.908 1.43188 158.611 1.79588 158.387C2.15988 158.163 2.58338 158.051 3.06638 158.051C3.96938 158.051 4.64488 158.362 5.09288 158.985C5.54788 159.608 5.77538 160.462 5.77538 161.547C5.77538 162.352 5.67038 163.063 5.46038 163.679C5.25038 164.295 4.93888 164.778 4.52588 165.128C4.11988 165.478 3.61938 165.653 3.02438 165.653ZM3.11888 162.198C3.46888 162.198 3.77338 162.125 4.03238 161.978C4.29138 161.824 4.49088 161.614 4.63088 161.348C4.77788 161.082 4.85138 160.784 4.85138 160.455C4.85138 160.119 4.77788 159.822 4.63088 159.563C4.49088 159.304 4.29138 159.101 4.03238 158.954C3.77338 158.8 3.46888 158.723 3.11888 158.723C2.76888 158.723 2.46438 158.8 2.20538 158.954C1.94638 159.108 1.74688 159.318 1.60688 159.584C1.46688 159.843 1.39688 160.137 1.39688 160.466C1.39688 160.795 1.46688 161.092 1.60688 161.358C1.74688 161.617 1.94638 161.824 2.20538 161.978C2.46438 162.125 2.76888 162.198 3.11888 162.198ZM0.766883 184.527V183.855H2.70938V178.048L0.871883 178.416V177.88L2.92988 177.177H3.44438V183.855H5.49188V184.527H0.766883ZM9.44628 184.653C8.90028 184.653 8.41728 184.502 7.99728 184.201C7.57728 183.893 7.24828 183.456 7.01028 182.889C6.77228 182.315 6.65328 181.636 6.65328 180.852C6.65328 180.061 6.77228 179.382 7.01028 178.815C7.24828 178.248 7.57728 177.814 7.99728 177.513C8.41728 177.205 8.90028 177.051 9.44628 177.051C9.99228 177.051 10.4753 177.205 10.8953 177.513C11.3153 177.814 11.6443 178.248 11.8823 178.815C12.1203 179.382 12.2393 180.061 12.2393 180.852C12.2393 181.636 12.1203 182.315 11.8823 182.889C11.6443 183.456 11.3153 183.893 10.8953 184.201C10.4753 184.502 9.99228 184.653 9.44628 184.653ZM7.40928 180.852C7.40928 181.384 7.46878 181.86 7.58778 182.28C7.71378 182.693 7.88528 183.036 8.10228 183.309L10.2653 177.943C10.0133 177.796 9.74028 177.723 9.44628 177.723C9.04728 177.723 8.69378 177.852 8.38578 178.111C8.08478 178.363 7.84678 178.724 7.67178 179.193C7.49678 179.655 7.40928 180.208 7.40928 180.852ZM9.44628 183.991C9.84528 183.991 10.1988 183.865 10.5068 183.613C10.8148 183.354 11.0528 182.99 11.2208 182.521C11.3958 182.045 11.4833 181.489 11.4833 180.852C11.4833 180.32 11.4203 179.847 11.2943 179.434C11.1753 179.014 11.0073 178.671 10.7903 178.405L8.62728 183.771C8.87928 183.918 9.15228 183.991 9.44628 183.991Z" fill="#737373"/>
</g>
</svg>
