<svg width="12" height="106" viewBox="0 0 12 106" fill="none" xmlns="http://www.w3.org/2000/svg">
<g clip-path="url(#clip0_4097_4463)">
<path d="M6.49935 1.5C6.49935 0.947715 6.05163 0.5 5.49935 0.5C4.94707 0.5 4.49935 0.947715 4.49935 1.5H6.49935ZM5.49935 94.1667C2.55383 94.1667 0.166016 96.5545 0.166016 99.5C0.166016 102.446 2.55383 104.833 5.49935 104.833C8.44487 104.833 10.8326 102.446 10.8326 99.5C10.8326 96.5545 8.44487 94.1667 5.49935 94.1667ZM4.49935 4.5625C4.49935 5.11478 4.94707 5.5625 5.49935 5.5625C6.05163 5.5625 6.49935 5.11478 6.49935 4.5625H4.49935ZM6.49935 10.6875C6.49935 10.1352 6.05163 9.6875 5.49935 9.6875C4.94707 9.6875 4.49935 10.1352 4.49935 10.6875H6.49935ZM4.49935 16.8125C4.49935 17.3648 4.94707 17.8125 5.49935 17.8125C6.05163 17.8125 6.49935 17.3648 6.49935 16.8125H4.49935ZM6.49935 22.9375C6.49935 22.3852 6.05163 21.9375 5.49935 21.9375C4.94707 21.9375 4.49935 22.3852 4.49935 22.9375H6.49935ZM4.49935 29.0625C4.49935 29.6148 4.94707 30.0625 5.49935 30.0625C6.05163 30.0625 6.49935 29.6148 6.49935 29.0625H4.49935ZM6.49935 35.1875C6.49935 34.6352 6.05163 34.1875 5.49935 34.1875C4.94707 34.1875 4.49935 34.6352 4.49935 35.1875H6.49935ZM4.49935 41.3125C4.49935 41.8648 4.94707 42.3125 5.49935 42.3125C6.05163 42.3125 6.49935 41.8648 6.49935 41.3125H4.49935ZM6.49935 47.4375C6.49935 46.8852 6.05163 46.4375 5.49935 46.4375C4.94707 46.4375 4.49935 46.8852 4.49935 47.4375H6.49935ZM4.49935 53.5625C4.49935 54.1148 4.94707 54.5625 5.49935 54.5625C6.05163 54.5625 6.49935 54.1148 6.49935 53.5625H4.49935ZM6.49935 59.6875C6.49935 59.1352 6.05163 58.6875 5.49935 58.6875C4.94707 58.6875 4.49935 59.1352 4.49935 59.6875H6.49935ZM4.49935 65.8125C4.49935 66.3648 4.94707 66.8125 5.49935 66.8125C6.05163 66.8125 6.49935 66.3648 6.49935 65.8125H4.49935ZM6.49935 71.9375C6.49935 71.3852 6.05163 70.9375 5.49935 70.9375C4.94707 70.9375 4.49935 71.3852 4.49935 71.9375H6.49935ZM4.49935 78.0625C4.49935 78.6148 4.94707 79.0625 5.49935 79.0625C6.05163 79.0625 6.49935 78.6148 6.49935 78.0625H4.49935ZM6.49935 84.1875C6.49935 83.6352 6.05163 83.1875 5.49935 83.1875C4.94707 83.1875 4.49935 83.6352 4.49935 84.1875H6.49935ZM4.49935 90.3125C4.49935 90.8648 4.94707 91.3125 5.49935 91.3125C6.05163 91.3125 6.49935 90.8648 6.49935 90.3125H4.49935ZM6.49935 96.4375C6.49935 95.8852 6.05163 95.4375 5.49935 95.4375C4.94707 95.4375 4.49935 95.8852 4.49935 96.4375H6.49935ZM4.49935 1.5V4.5625H6.49935V1.5H4.49935ZM4.49935 10.6875V16.8125H6.49935V10.6875H4.49935ZM4.49935 22.9375V29.0625H6.49935V22.9375H4.49935ZM4.49935 35.1875V41.3125H6.49935V35.1875H4.49935ZM4.49935 47.4375V53.5625H6.49935V47.4375H4.49935ZM4.49935 59.6875V65.8125H6.49935V59.6875H4.49935ZM4.49935 71.9375V78.0625H6.49935V71.9375H4.49935ZM4.49935 84.1875V90.3125H6.49935V84.1875H4.49935ZM4.49935 96.4375V99.5H6.49935V96.4375H4.49935Z" fill="url(#paint0_linear_4097_4463)"/>
<path d="M11 100C11 97.2386 8.76142 95 6 95C3.23858 95 1 97.2386 1 100C1 102.761 3.23858 105 6 105C8.76142 105 11 102.761 11 100Z" fill="white" stroke="#00A6F4" stroke-width="2"/>
</g>
<defs>
<linearGradient id="paint0_linear_4097_4463" x1="4.99935" y1="-14" x2="4.99935" y2="99.5" gradientUnits="userSpaceOnUse">
<stop stop-color="white"/>
<stop offset="1" stop-color="#E5E5E5"/>
</linearGradient>
<clipPath id="clip0_4097_4463">
<rect width="12" height="106" fill="white"/>
</clipPath>
</defs>
</svg>
