<svg width="351" height="184" viewBox="0 0 351 184" fill="none" xmlns="http://www.w3.org/2000/svg">
<g clip-path="url(#clip0_4097_4476)">
<mask id="mask0_4097_4476" style="mask-type:luminance" maskUnits="userSpaceOnUse" x="0" y="0" width="351" height="184">
<path d="M351 0.526855H0V183.527H351V0.526855Z" fill="white"/>
</mask>
<g mask="url(#mask0_4097_4476)">
<path opacity="0.36" d="M17.5 10.5269C17.5 9.14614 18.6193 8.02686 20 8.02686H38C39.3807 8.02686 40.5 9.14614 40.5 10.5269V183.027H17.5V10.5269Z" fill="#00A6F4" fill-opacity="0.15" stroke="#00A6F4"/>
<path opacity="0.36" d="M75.5 70.5269C75.5 69.1461 76.6193 68.0269 78 68.0269H96C97.3807 68.0269 98.5 69.1461 98.5 70.5269V183.027H75.5V70.5269Z" fill="#00A6F4" fill-opacity="0.15" stroke="#00A6F4"/>
<path opacity="0.36" d="M133.5 117.527C133.5 116.146 134.619 115.027 136 115.027H154C155.381 115.027 156.5 116.146 156.5 117.527V183.027H133.5V117.527Z" fill="#00A6F4" fill-opacity="0.15" stroke="#00A6F4"/>
<path opacity="0.36" d="M191.5 46.5269C191.5 45.1461 192.619 44.0269 194 44.0269H212C213.381 44.0269 214.5 45.1461 214.5 46.5269V183.027H191.5V46.5269Z" fill="#00A6F4" fill-opacity="0.15" stroke="#00A6F4"/>
<path opacity="0.36" d="M249.5 28.5269C249.5 27.1461 250.619 26.0269 252 26.0269H270C271.381 26.0269 272.5 27.1461 272.5 28.5269V183.027H249.5V28.5269Z" fill="#00A6F4" fill-opacity="0.15" stroke="#00A6F4"/>
<path opacity="0.36" d="M307.5 15.5269C307.5 14.1461 308.619 13.0269 310 13.0269H328C329.381 13.0269 330.5 14.1461 330.5 15.5269V183.027H307.5V15.5269Z" fill="#00A6F4" fill-opacity="0.15" stroke="#00A6F4"/>
<path d="M0.5 0.526855V183.527" stroke="#00A6F4" stroke-opacity="0.25"/>
<path d="M0 183.027H331" stroke="url(#paint0_linear_4097_4476)"/>
<path d="M0 183.027H331" stroke="#00A6F4" stroke-opacity="0.25"/>
<path d="M0.5 85.0269C1.5 69.0269 9.9 38.1269 35.5 42.5269C67.5 48.0269 82 131.527 149.5 132.527C217 133.527 233.5 116.027 252.5 90.5269C271.752 64.6887 293 29.5269 351 29.5269" stroke="#00A6F4" stroke-dasharray="2 2"/>
<path d="M44.5 43.5269C44.5 41.0416 42.4853 39.0269 40 39.0269C37.5147 39.0269 35.5 41.0416 35.5 43.5269C35.5 46.0122 37.5147 48.0269 40 48.0269C42.4853 48.0269 44.5 46.0122 44.5 43.5269Z" fill="white" stroke="#00A6F4"/>
<path d="M79.5 86.5269C79.5 84.0416 77.4853 82.0269 75 82.0269C72.5147 82.0269 70.5 84.0416 70.5 86.5269C70.5 89.0122 72.5147 91.0269 75 91.0269C77.4853 91.0269 79.5 89.0122 79.5 86.5269Z" fill="white" stroke="#00A6F4"/>
<path d="M102.5 110.527C102.5 108.042 100.485 106.027 98 106.027C95.5147 106.027 93.5 108.042 93.5 110.527C93.5 113.012 95.5147 115.027 98 115.027C100.485 115.027 102.5 113.012 102.5 110.527Z" fill="white" stroke="#00A6F4"/>
<path d="M137.5 130.527C137.5 128.042 135.485 126.027 133 126.027C130.515 126.027 128.5 128.042 128.5 130.527C128.5 133.012 130.515 135.027 133 135.027C135.485 135.027 137.5 133.012 137.5 130.527Z" fill="white" stroke="#00A6F4"/>
<path d="M161.5 132.527C161.5 130.042 159.485 128.027 157 128.027C154.515 128.027 152.5 130.042 152.5 132.527C152.5 135.012 154.515 137.027 157 137.027C159.485 137.027 161.5 135.012 161.5 132.527Z" fill="white" stroke="#00A6F4"/>
<path d="M195.5 130.527C195.5 128.042 193.485 126.027 191 126.027C188.515 126.027 186.5 128.042 186.5 130.527C186.5 133.012 188.515 135.027 191 135.027C193.485 135.027 195.5 133.012 195.5 130.527Z" fill="white" stroke="#00A6F4"/>
<path d="M219.5 122.527C219.5 120.042 217.485 118.027 215 118.027C212.515 118.027 210.5 120.042 210.5 122.527C210.5 125.012 212.515 127.027 215 127.027C217.485 127.027 219.5 125.012 219.5 122.527Z" fill="white" stroke="#00A6F4"/>
<path d="M253.5 94.5269C253.5 92.0416 251.485 90.0269 249 90.0269C246.515 90.0269 244.5 92.0416 244.5 94.5269C244.5 97.0122 246.515 99.0269 249 99.0269C251.485 99.0269 253.5 97.0122 253.5 94.5269Z" fill="white" stroke="#00A6F4"/>
<path d="M277.5 64.5269C277.5 62.0416 275.485 60.0269 273 60.0269C270.515 60.0269 268.5 62.0416 268.5 64.5269C268.5 67.0122 270.515 69.0269 273 69.0269C275.485 69.0269 277.5 67.0122 277.5 64.5269Z" fill="white" stroke="#00A6F4"/>
<path d="M313.5 36.5269C313.5 34.0416 311.485 32.0269 309 32.0269C306.515 32.0269 304.5 34.0416 304.5 36.5269C304.5 39.0122 306.515 41.0269 309 41.0269C311.485 41.0269 313.5 39.0122 313.5 36.5269Z" fill="white" stroke="#00A6F4"/>
<path d="M335.5 30.5269C335.5 28.0416 333.485 26.0269 331 26.0269C328.515 26.0269 326.5 28.0416 326.5 30.5269C326.5 33.0122 328.515 35.0269 331 35.0269C333.485 35.0269 335.5 33.0122 335.5 30.5269Z" fill="white" stroke="#00A6F4"/>
</g>
</g>
<defs>
<linearGradient id="paint0_linear_4097_4476" x1="nan" y1="nan" x2="nan" y2="nan" gradientUnits="userSpaceOnUse">
<stop stop-color="#E5E5E5"/>
<stop offset="1" stop-color="#F5F5F5" stop-opacity="0.5"/>
</linearGradient>
<clipPath id="clip0_4097_4476">
<rect width="351" height="184" fill="white"/>
</clipPath>
</defs>
</svg>
